<svg width="7" height="14" viewBox="0 0 7 14" fill="none" xmlns="http://www.w3.org/2000/svg">
<path d="M0.527851 8.00035H1.37535C1.45681 8.00035 1.52285 8.06639 1.52285 8.14785V13.5004C1.52285 13.7765 1.74671 14.0004 2.02285 14.0004H3.97035C4.24649 14.0004 4.47035 13.7765 4.47035 13.5004V8.14535C4.47035 8.06389 4.53639 7.99785 4.61785 7.99785H6.02785C6.27799 8.00049 6.49159 7.81787 6.52785 7.57035L6.85535 5.61035C6.8849 5.46187 6.84558 5.30799 6.74842 5.19188C6.65126 5.07577 6.50672 5.00994 6.35535 5.01285H4.70535C4.57694 5.01285 4.47285 4.90876 4.47285 4.78035V3.53035C4.45656 3.39339 4.50398 3.25653 4.6015 3.159C4.69903 3.06148 4.83589 3.01406 4.97285 3.03035H6.45035C6.72649 3.03035 6.95035 2.80649 6.95035 2.53035V0.547852C6.95035 0.271709 6.72649 0.0478516 6.45035 0.0478516H4.69285C1.44285 0.0478516 1.52535 2.66535 1.52535 3.04785V4.87035C1.52535 4.95181 1.45931 5.01785 1.37785 5.01785H0.527851C0.251708 5.01785 0.0278509 5.24171 0.0278509 5.51785V7.47785C0.0217038 7.61431 0.0716558 7.74735 0.166098 7.84604C0.260541 7.94473 0.391251 8.00049 0.527851 8.00035Z" fill="#4865AB"/>
</svg>
