<svg width="14" height="14" viewBox="0 0 14 14" fill="none" xmlns="http://www.w3.org/2000/svg">
<path fill-rule="evenodd" clip-rule="evenodd" d="M3.84209 0H10.0805C12.1992 0 13.9228 1.72365 13.9228 3.84218V10.0806C13.9228 12.1991 12.1992 13.9228 10.0805 13.9228H3.84209C1.72356 13.9228 0 12.1992 0 10.0806V3.84218C0 1.72365 1.72356 0 3.84209 0ZM10.0806 12.6875C11.518 12.6875 12.6875 11.518 12.6875 10.0806H12.6875V3.84218C12.6875 2.40479 11.518 1.23529 10.0805 1.23529H3.84209C2.40471 1.23529 1.23529 2.40479 1.23529 3.84218V10.0806C1.23529 11.518 2.40471 12.6875 3.84209 12.6875H10.0806Z" fill="black"/>
<path fill-rule="evenodd" clip-rule="evenodd" d="M3.37402 6.96156C3.37402 4.98336 4.98336 3.37402 6.96156 3.37402C8.93976 3.37402 10.5491 4.98336 10.5491 6.96156C10.5491 8.93968 8.93976 10.5489 6.96156 10.5489C4.98336 10.5489 3.37402 8.93968 3.37402 6.96156ZM4.60932 6.96148C4.60932 8.25846 5.66459 9.31356 6.96156 9.31356C8.25854 9.31356 9.31381 8.25846 9.31381 6.96148C9.31381 5.66442 8.25862 4.60924 6.96156 4.60924C5.66451 4.60924 4.60932 5.66442 4.60932 6.96148Z" fill="black"/>
<path d="M10.6998 2.32617C10.4618 2.32617 10.228 2.42252 10.0599 2.59135C9.89104 2.75935 9.79395 2.99323 9.79395 3.23205C9.79395 3.47014 9.89112 3.70394 10.0599 3.87276C10.2279 4.04076 10.4618 4.13794 10.6998 4.13794C10.9387 4.13794 11.1717 4.04076 11.3405 3.87276C11.5094 3.70394 11.6057 3.47005 11.6057 3.23205C11.6057 2.99323 11.5094 2.75935 11.3405 2.59135C11.1725 2.42252 10.9387 2.32617 10.6998 2.32617Z" fill="black"/>
</svg>
