<svg width="16" height="15" viewBox="0 0 16 15" fill="none" xmlns="http://www.w3.org/2000/svg">
<path d="M15.6098 11.1555C13.6014 10.8245 12.6863 8.79326 12.5885 8.56269C12.5867 8.55818 12.579 8.54196 12.5769 8.53719C12.4762 8.33265 12.4512 8.16664 12.5038 8.04418C12.6093 7.79475 13.0561 7.65343 13.3421 7.56288C13.4226 7.53685 13.498 7.51295 13.5581 7.48904C14.1366 7.26059 14.427 6.96867 14.4208 6.62071C14.4153 6.34473 14.1988 6.09131 13.8782 5.97788C13.7676 5.93165 13.6362 5.90644 13.5081 5.90644C13.4197 5.90644 13.2882 5.91892 13.1625 5.97763C12.9176 6.09212 12.6998 6.15375 12.5351 6.16091C12.4618 6.15799 12.4063 6.14579 12.3662 6.13221C12.3712 6.04537 12.3771 5.95609 12.3827 5.86498L12.3856 5.8185C12.4538 4.73502 12.5386 3.38666 12.1779 2.57863C11.1111 0.186907 8.84715 0.000976562 8.17854 0.000976562L7.8667 0.00390263C7.19943 0.00390263 4.93973 0.189584 3.87401 2.57996C3.51249 3.38986 3.59803 4.73766 3.66657 5.8209C3.6732 5.92742 3.67987 6.03126 3.68569 6.13249C3.63999 6.14815 3.57412 6.16197 3.4846 6.16197C3.29282 6.16197 3.06306 6.09981 2.80192 5.97763C2.42446 5.80073 1.73437 6.03712 1.64111 6.52695C1.59037 6.79204 1.69717 7.1743 2.4935 7.48907C2.55538 7.51351 2.63324 7.53847 2.72886 7.56876C2.99582 7.65349 3.44261 7.79506 3.54832 8.04397C3.60064 8.16695 3.57568 8.33296 3.46545 8.55796C3.42614 8.6496 2.48024 10.8031 0.391056 11.147C0.174309 11.1826 0.0196945 11.375 0.031928 11.5938C0.0353832 11.6546 0.0494533 11.7157 0.0754766 11.7774C0.251072 12.1881 0.919648 12.4731 2.1782 12.6728C2.20581 12.7443 2.23797 12.8909 2.2563 12.9759C2.28285 13.0973 2.31075 13.2227 2.34875 13.3526C2.38701 13.4841 2.50069 13.7045 2.82953 13.7045C2.94082 13.7045 3.06966 13.6793 3.20964 13.6522C3.41098 13.6126 3.68618 13.559 4.02751 13.559C4.21689 13.559 4.414 13.576 4.6135 13.6089C4.9899 13.6713 5.32008 13.9048 5.70312 14.1755C6.26704 14.5742 6.77973 14.8792 7.80503 14.8792C7.83211 14.8792 7.85895 14.8784 7.88525 14.8765C7.92323 14.8784 7.96148 14.8792 8.00027 14.8792C8.89836 14.8792 9.68886 14.642 10.3503 14.1747C10.7158 13.916 11.0611 13.6716 11.4377 13.6089C11.6378 13.576 11.8351 13.559 12.0245 13.559C12.3518 13.559 12.6129 13.601 12.8458 13.6467C13.0034 13.6777 13.1266 13.6926 13.2403 13.6926C13.4698 13.6926 13.6387 13.5665 13.7033 13.3463C13.7405 13.2182 13.7684 13.0966 13.7955 12.9722C13.8098 12.9061 13.8443 12.7478 13.8736 12.6715C15.1141 12.4742 15.7476 12.2003 15.9229 11.7907C15.9492 11.7317 15.9646 11.6693 15.9689 11.6029C15.9806 11.3839 15.8265 11.1916 15.6098 11.1555Z" fill="#F4EF10"/>
</svg>
