<svg width="16" height="14" viewBox="0 0 16 14" fill="none" xmlns="http://www.w3.org/2000/svg">
<path d="M16 1.54942C15.4111 1.81036 14.7792 1.98733 14.1153 2.06633C14.7932 1.6604 15.3121 1.01653 15.558 0.251666C14.9222 0.627588 14.2203 0.900555 13.4724 1.04853C12.8735 0.409653 12.0217 0.0117188 11.0769 0.0117188C9.26421 0.0117188 7.79448 1.48144 7.79448 3.2931C7.79448 3.55005 7.82348 3.801 7.87948 4.04097C5.152 3.90398 2.73346 2.59724 1.11477 0.611588C0.831817 1.09551 0.67085 1.65938 0.67085 2.26129C0.67085 3.40008 1.25075 4.4049 2.13059 4.99276C1.59268 4.97478 1.08677 4.8268 0.643869 4.58084V4.62184C0.643869 6.21154 1.77566 7.53828 3.27637 7.84024C3.00141 7.91423 2.71148 7.95522 2.41153 7.95522C2.19958 7.95522 1.99461 7.93423 1.79365 7.89423C2.21156 9.19899 3.42335 10.1478 4.85909 10.1738C3.73629 11.0537 2.32055 11.5766 0.78285 11.5766C0.517908 11.5766 0.256941 11.5606 0 11.5316C1.45273 12.4644 3.17741 13.0083 5.03106 13.0083C11.0689 13.0083 14.3693 8.00722 14.3693 3.67005L14.3583 3.24513C15.0032 2.78518 15.561 2.2073 16 1.54942Z" fill="#29ACDA"/>
</svg>
