<svg width="19" height="22" viewBox="0 0 19 22" fill="none" xmlns="http://www.w3.org/2000/svg">
<path fill-rule="evenodd" clip-rule="evenodd" d="M18.441 6.5899V6.67371C18.4514 6.76421 18.4514 6.85559 18.441 6.94609V16.1023C18.4417 16.4642 18.2541 16.8009 17.9449 16.9928L10.081 21.8432C10.0323 21.8731 9.97868 21.8944 9.92265 21.9061H9.8382C9.65962 21.9623 9.46789 21.9623 9.28931 21.9061H9.20487C9.14883 21.8944 9.09526 21.8731 9.04654 21.8432L1.12987 16.9928C0.820606 16.8009 0.633028 16.4642 0.633758 16.1023V6.94609C0.623383 6.85559 0.623383 6.76421 0.633758 6.67371V6.5899L0.697091 6.43276C0.719134 6.39941 0.743843 6.36788 0.77098 6.33847C0.799222 6.29412 0.830989 6.25208 0.86598 6.21276L0.96098 6.13942L1.05598 6.05562L8.90931 1.20514C9.2516 0.992818 9.68592 0.992818 10.0282 1.20514L17.9449 6.05562L18.1138 6.13942L18.2088 6.21276C18.2437 6.25208 18.2755 6.29412 18.3038 6.33847C18.3309 6.36788 18.3556 6.39941 18.3776 6.43276L18.441 6.5899ZM2.63931 15.5156L8.44487 19.0775V12.3832L2.63931 8.83181V15.5156ZM9.50042 10.5709L3.58931 6.94609L9.50042 3.33181L15.4115 6.94609L9.50042 10.5709ZM10.556 19.0775L16.3615 15.5156V8.83181L10.556 12.3832V19.0775Z" fill="#7B86AB"/>
</svg>
