<svg width="23" height="22" viewBox="0 0 23 22" fill="none" xmlns="http://www.w3.org/2000/svg">
<path fill-rule="evenodd" clip-rule="evenodd" d="M21.5471 10.2775L18.1494 7.62701L21.5576 4.94511C21.8314 4.72979 21.9804 4.39202 21.9549 4.04416C21.9211 3.69821 21.7277 3.38805 21.4321 3.20606L16.0585 0.136538C15.6717 -0.0815009 15.1898 -0.0311019 14.8562 0.262253L11.5003 3.19559L8.14442 0.262253C7.81091 -0.0311019 7.32892 -0.0815009 6.94215 0.136538L1.56851 3.20606C1.27298 3.38805 1.07953 3.69821 1.04579 4.04416C1.02028 4.39202 1.16922 4.72979 1.44306 4.94511L4.85124 7.62701L1.45351 10.2356C1.17575 10.4486 1.02272 10.7868 1.04579 11.1365C1.06931 11.4859 1.26545 11.8004 1.56851 11.9746L5.13351 14.0699V16.6575C5.13503 17.0215 5.32502 17.3587 5.63533 17.548L10.9567 20.827C11.2802 21.0142 11.6787 21.0142 12.0021 20.827L17.3235 17.548C17.6338 17.3587 17.8238 17.0215 17.8253 16.6575V14.0594L21.3903 12.0165C21.6934 11.8423 21.8895 11.5278 21.9131 11.1784C21.946 10.8361 21.8093 10.4994 21.5471 10.2775ZM15.6821 2.32606L19.059 4.25368L16.3931 6.34892L13.2567 4.4213L15.6821 2.32606ZM11.5003 9.78511L14.5426 7.68987L11.5003 5.81463L8.45806 7.68987L11.5003 9.78511ZM3.9626 4.25368L7.31851 2.32606L9.73351 4.4213L6.59715 6.34892L3.9626 4.25368ZM6.57624 8.93654L3.9626 10.948L7.3917 12.928L9.7126 11.1156L6.57624 8.93654ZM15.7658 16.0394L11.5003 18.6794L7.22442 16.0394V15.2013C7.53383 15.2774 7.86099 15.208 8.11306 15.0127L11.5003 12.3937L14.8876 15.0127C15.0701 15.1546 15.2943 15.232 15.5253 15.2327C15.6087 15.2428 15.6929 15.2428 15.7762 15.2327L15.7658 16.0394ZM13.2776 11.1156L15.609 12.8965L19.0381 10.9689L16.414 8.93654L13.2776 11.1156Z" fill="#7B86AB"/>
</svg>
