<svg width="20" height="20" viewBox="0 0 20 20" fill="none" xmlns="http://www.w3.org/2000/svg">
<path fill-rule="evenodd" clip-rule="evenodd" d="M11.8182 0H8.18182C7.67974 0 7.27273 0.407014 7.27273 0.909091V19.0909C7.27273 19.593 7.67974 20 8.18182 20H11.8182C12.3203 20 12.7273 19.593 12.7273 19.0909V0.909091C12.7273 0.407014 12.3203 0 11.8182 0ZM19.0909 7.27273H15.4545C14.9525 7.27273 14.5455 7.67974 14.5455 8.18182V19.0909C14.5455 19.593 14.9525 20 15.4545 20H19.0909C19.593 20 20 19.593 20 19.0909V8.18182C20 7.67974 19.593 7.27273 19.0909 7.27273ZM0.909091 10.9091H4.54545C5.04753 10.9091 5.45455 11.3161 5.45455 11.8182V19.0909C5.45455 19.593 5.04753 20 4.54545 20H0.909091C0.407014 20 0 19.593 0 19.0909V11.8182C0 11.3161 0.407014 10.9091 0.909091 10.9091ZM1.81818 18.1818H3.63636V12.7273H1.81818V18.1818ZM16.3636 18.1818H18.1818V9.09091H16.3636V18.1818ZM9.09091 18.1818H10.9091V1.81818H9.09091V18.1818Z" fill="#7B86AB"/>
</svg>
