<svg width="17" height="20" viewBox="0 0 17 20" fill="none" xmlns="http://www.w3.org/2000/svg">
<path fill-rule="evenodd" clip-rule="evenodd" d="M16.0556 6.66677L10.389 1.65724C9.31344 0.687169 7.68674 0.687169 6.6112 1.65724L0.944534 6.66677C0.337676 7.21407 -0.0063821 7.99818 8.96849e-05 8.81915V17.143C8.96849e-05 18.7209 1.26862 20.0001 2.83342 20.0001H14.1668C15.7316 20.0001 17.0001 18.7209 17.0001 17.143V8.80962C17.0038 7.99197 16.66 7.21187 16.0556 6.66677ZM10.389 18.0953H6.6112V13.3334C6.6112 12.8074 7.03404 12.3811 7.55564 12.3811H9.44453C9.96614 12.3811 10.389 12.8074 10.389 13.3334V18.0953ZM14.1668 18.0953C14.6884 18.0953 15.1112 17.6689 15.1112 17.143V8.80962C15.1109 8.53607 14.9939 8.27588 14.7901 8.09534L9.12342 3.09534C8.76689 2.77948 8.23329 2.77948 7.87676 3.09534L2.21009 8.09534C2.00629 8.27588 1.88932 8.53607 1.88898 8.80962V17.143C1.88898 17.6689 2.31182 18.0953 2.83342 18.0953H4.72231V13.3334C4.72231 11.7555 5.99084 10.4763 7.55564 10.4763H9.44453C11.0093 10.4763 12.2779 11.7555 12.2779 13.3334V18.0953H14.1668Z" fill="#FC4761"/>
</svg>
