<svg width="19" height="19" viewBox="0 0 19 19" fill="none" xmlns="http://www.w3.org/2000/svg">
<path fill-rule="evenodd" clip-rule="evenodd" d="M16.4091 1.72727H2.85C2.37303 1.72727 1.98636 1.34061 1.98636 0.863636C1.98636 0.386663 2.37303 0 2.85 0H16.4091C16.8861 0 17.2727 0.386663 17.2727 0.863636C17.2727 1.34061 16.8861 1.72727 16.4091 1.72727ZM18.1364 3.45455H0.863636C0.386663 3.45455 0 3.84121 0 4.31818V7.77273C0.00307832 8.86804 0.694598 9.84308 1.72727 10.2082V18.1364C1.72727 18.6133 2.11394 19 2.59091 19H16.4091C16.8861 19 17.2727 18.6133 17.2727 18.1364V10.2082C18.3054 9.84308 18.9969 8.86804 19 7.77273V4.31818C19 3.84121 18.6133 3.45455 18.1364 3.45455ZM12.0909 5.18182H13.8182V7.77273C13.8182 8.2497 13.4315 8.63636 12.9545 8.63636C12.4776 8.63636 12.0909 8.2497 12.0909 7.77273V5.18182ZM10.3636 5.18182H8.63636V7.77273C8.63636 8.2497 9.02303 8.63636 9.5 8.63636C9.97697 8.63636 10.3636 8.2497 10.3636 7.77273V5.18182ZM5.18182 5.18182H6.90909V7.77273C6.90909 8.2497 6.52243 8.63636 6.04545 8.63636C5.56848 8.63636 5.18182 8.2497 5.18182 7.77273V5.18182ZM1.72727 7.77273C1.72727 8.2497 2.11394 8.63636 2.59091 8.63636C3.06788 8.63636 3.45455 8.2497 3.45455 7.77273V5.18182H1.72727V7.77273ZM7.77273 17.2727V15.5455C7.77273 14.5915 8.54605 13.8182 9.5 13.8182C10.4539 13.8182 11.2273 14.5915 11.2273 15.5455V17.2727H7.77273ZM12.9545 17.2727H15.5455V10.2082C15.228 10.0903 14.9352 9.91465 14.6818 9.69C13.6983 10.5697 12.2108 10.5697 11.2273 9.69C10.2438 10.5697 8.75624 10.5697 7.77273 9.69C6.78922 10.5697 5.30169 10.5697 4.31818 9.69C4.06483 9.91465 3.77199 10.0903 3.45455 10.2082V17.2727H6.04545V15.5455C6.04545 13.6376 7.59211 12.0909 9.5 12.0909C11.4079 12.0909 12.9545 13.6376 12.9545 15.5455V17.2727ZM17.2727 7.77273C17.2727 8.2497 16.8861 8.63636 16.4091 8.63636C15.9321 8.63636 15.5455 8.2497 15.5455 7.77273V5.18182H17.2727V7.77273Z" fill="#7B86AB"/>
</svg>
