<svg width="20" height="20" viewBox="0 0 20 20" fill="none" xmlns="http://www.w3.org/2000/svg">
<path fill-rule="evenodd" clip-rule="evenodd" d="M10 0C4.47715 0 0 4.47715 0 10C0 15.5228 4.47715 20 10 20C15.5228 20 20 15.5228 20 10C20 7.34784 18.9464 4.8043 17.0711 2.92893C15.1957 1.05357 12.6522 0 10 0ZM7.21 8.54C7.60004 8.92772 8.22996 8.92772 8.62 8.54C9.00772 8.14996 9.00772 7.52004 8.62 7.13C7.43159 6.00237 5.56841 6.00237 4.38 7.13C4.09462 7.37439 3.97032 7.75812 4.05819 8.12342C4.14606 8.48872 4.43128 8.77394 4.79658 8.86181C5.16188 8.94968 5.54561 8.82538 5.79 8.54C5.97777 8.35069 6.23336 8.2442 6.5 8.2442C6.76664 8.2442 7.02223 8.35069 7.21 8.54ZM7.64 12.23C7.21474 11.8765 6.58346 11.9347 6.23 12.36C5.87654 12.7853 5.93474 13.4165 6.36 13.77C8.46772 15.5295 11.5323 15.5295 13.64 13.77C13.9151 13.5414 14.0473 13.1833 13.9868 12.8307C13.9264 12.4782 13.6824 12.1847 13.3468 12.0607C13.0113 11.9368 12.6351 12.0014 12.36 12.23C10.9826 13.3405 9.01737 13.3405 7.64 12.23ZM11.38 7.13C12.5684 6.00237 14.4316 6.00237 15.62 7.13C16.0077 7.52004 16.0077 8.14996 15.62 8.54C15.23 8.92772 14.6 8.92772 14.21 8.54C14.0222 8.35069 13.7666 8.2442 13.5 8.2442C13.2334 8.2442 12.9778 8.35069 12.79 8.54C12.3932 8.87978 11.8018 8.85693 11.4324 8.48756C11.0631 8.11819 11.0402 7.52676 11.38 7.13ZM2 10C2 14.4183 5.58172 18 10 18C12.1217 18 14.1566 17.1571 15.6569 15.6569C17.1571 14.1566 18 12.1217 18 10C18 5.58172 14.4183 2 10 2C5.58172 2 2 5.58172 2 10Z" fill="#7B86AB"/>
</svg>
