<svg width="21" height="21" viewBox="0 0 21 21" fill="none" xmlns="http://www.w3.org/2000/svg">
<path d="M19.71 13.5799L15.19 9.0699C15.2846 8.60927 15.3315 8.14013 15.33 7.6699C15.3293 5.04955 13.9909 2.61089 11.7809 1.20304C9.57085 -0.204809 6.79505 -0.387003 4.41997 0.719898C4.11936 0.857221 3.90601 1.1342 3.84997 1.4599C3.79416 1.78134 3.89867 2.1098 4.12997 2.3399L8.47997 6.6799L6.67997 8.4799L2.33997 4.1299C2.10795 3.90222 1.77975 3.80152 1.45997 3.8599C1.13638 3.91388 0.859845 4.12315 0.719969 4.4199C-0.390753 6.80304 -0.203369 9.58904 1.21648 11.802C2.63633 14.0149 5.09075 15.3464 7.71997 15.3299C8.1902 15.3314 8.65934 15.2845 9.11997 15.1899L13.63 19.7099C13.8177 19.8992 14.0733 20.0057 14.34 20.0057C14.6066 20.0057 14.8622 19.8992 15.05 19.7099C15.2393 19.5221 15.3458 19.2665 15.3458 18.9999C15.3458 18.7333 15.2393 18.4777 15.05 18.2899L10.15 13.3899C9.9009 13.1425 9.54032 13.0438 9.19997 13.1299C8.71714 13.2592 8.2198 13.3264 7.71997 13.3299C6.20928 13.3432 4.75574 12.7531 3.68186 11.6905C2.60798 10.6279 2.00257 9.18064 1.99997 7.6699C1.99867 7.33492 2.02543 7.00041 2.07997 6.6699L5.99997 10.5999C6.18774 10.7892 6.44333 10.8957 6.70997 10.8957C6.97661 10.8957 7.2322 10.7892 7.41997 10.5999L10.6 7.3899C10.9746 7.0023 10.9746 6.38749 10.6 5.9999L6.70997 2.0799C7.04055 2.02591 7.37501 1.99915 7.70997 1.9999C10.8375 2.00541 13.37 4.54234 13.37 7.6699C13.3665 8.16973 13.2993 8.66707 13.17 9.1499C13.0839 9.49025 13.1826 9.85082 13.43 10.0999L18.33 14.9999C18.7221 15.392 19.3578 15.392 19.75 14.9999C20.1421 14.6078 20.1421 13.972 19.75 13.5799H19.71Z" fill="#7B86AB"/>
</svg>
